PathFileType	4	(X/Y/Z)	6_coords_data.trc
DataRate	CameraRate	NumFrames	NumMarkers	Units	OrigDataRate	OrigDataStartFrame	OrigNumFrames
30.0	30.0	8	21	m	30.0	1	68
Frame#	Time	THUMB_TIP	THUMB_IP	THUMB_MCP	THUMB_CMC	INDEX_TIP	INDEX_DIP	INDEX_PIP	INDEX_MCP	MIDDLE_TIP	MIDDLE_DIP	MIDDLE_PIP	MIDDLE_MCP	RING_TIP	RING_DIP	RING_PIP	RING_MCP	PINKY_TIP	PINKY_DIP	PINKY_PIP	PINKY_MCP	WRIST
X1	Y1	Z1	X2	Y2	Z2	X3	Y3	Z3	X4	Y4	Z4	X5	Y5	Z5	X6	Y6	Z6	X7	Y7	Z7	X8	Y8	Z8	X9	Y9	Z9	X10	Y10	Z10	X11	Y11	Z11	X12	Y12	Z12	X13	Y13	Z13	X14	Y14	Z14	X15	Y15	Z15	X16	Y16	Z16	X17	Y17	Z17	X18	Y18	Z18	X19	Y19	Z19	X20	Y20	Z20	X21	Y21	Z21
0	-2.749317978547796e-18	0.4443253431201979	-0.051191491296535774	-0.1703076091960932	0.45667926986461493	-0.04993267709730931	-0.1509738076866796	0.4565569560219881	-0.03742793107754272	-0.12247053828990626	0.46608524133337703	-0.029735107682155926	-0.07957622343079981	0.5504190488546803	0.030805841034143633	-0.18491419347670235	0.5420337548857117	0.022086754926388563	-0.17143590046536256	0.5314876567235752	0.009177137206532682	-0.15261752070296636	0.5119164458075189	-0.007773671677535954	-0.11880518751735153	0.5801205487959592	0.06267503182631684	-0.1359281056193739	0.5703548201802158	0.048382391606813124	-0.13060354177249658	0.5537192002486239	0.026570869252108165	-0.12075858407518611	0.5230963459293204	0.0009292816520526381	-0.10073615416052789	0.595418600638912	0.0503559989807324	-0.08552592838178269	0.5830918681996973	0.03720222048581212	-0.08535336338362914	0.5661606533283497	0.01895023560163478	-0.08473774193498773	0.5343738433531322	-0.005924108573755582	-0.08237415410212881	0.5966303539443913	0.004608548271069712	-0.025556522027591455	0.5837890093806604	-0.001962465975335892	-0.0347718159224748	0.5666847286778284	-0.007919991434607865	-0.04539083146257328	0.5342371437466933	-0.009004117947065238	-0.0611026853583351	0.4622830810018609	-0.023011742144276925	-0.05198982011943096
1	0.03333333333333339	0.44428323584678064	-0.051684694903394	-0.1701335831060462	0.4565644640437776	-0.05022066843397721	-0.1507679418703386	0.4565973483422655	-0.03763975046287016	-0.12229796783404578	0.4664675263090058	-0.029755088410647113	-0.07951594250532729	0.5506912203685729	0.030291312841399076	-0.1848952345391738	0.5422870667168693	0.02146457352655562	-0.17149900841140361	0.5315260800975936	0.008588721653283615	-0.15277940802791978	0.512071547473693	-0.00807549441587141	-0.11875792720791276	0.5806671729300168	0.062119597200063104	-0.13588787954450687	0.5708048641140565	0.047880753153241695	-0.1305973044312576	0.5537460268419205	0.026461780884829533	-0.1206156588811603	0.5232885964167092	0.0005601472393317319	-0.10067579360107826	0.5961091180784099	0.049847954432383434	-0.08584675701379693	0.5838702385520461	0.036612080525959434	-0.08570023100109939	0.5666175182291724	0.018665092200780165	-0.08504507413699619	0.5344050709485609	-0.005593323842213227	-0.08211107937236467	0.5965789020793525	0.004728415309198208	-0.025612732033660823	0.5837647871803583	-0.002101327065484604	-0.03467656557421281	0.5666025487733177	-0.008050983779557375	-0.04520610387579993	0.5343469321826831	-0.00968945722551584	-0.061261447351567494	0.462283081001861	-0.023011742144276925	-0.051989820119430985
2	0.06666666666666676	0.4442353432997276	-0.05207357545906377	-0.16998265718840352	0.4564650447614288	-0.05045453222906726	-0.15059675764319114	0.45662079932063515	-0.0378033170602321	-0.12215835938890965	0.46675684649375115	-0.029778460246845162	-0.07946465703330452	0.5509183780254685	0.02987154271337389	-0.18488123883764113	0.5424949503149317	0.020968168023672074	-0.1715479802434288	0.5315620435459418	0.00812620928924157	-0.1529048721751973	0.512178636324523	-0.008301612001568315	-0.11872817973538008	0.5811079972227453	0.06167005614319332	-0.13583378263946455	0.5711592911123992	0.04748090772239555	-0.1305715289566277	0.553781132443439	0.02636277514138541	-0.12050010266402505	0.523427815217411	0.00028214813598803623	-0.10063493341275903	0.5966650400668757	0.049400382968194934	-0.08610158660864886	0.5844823985095823	0.03611257231329401	-0.08596993294933455	0.5669706859194567	0.018419559606851044	-0.08527913447620325	0.534424436601243	-0.0053316995515555465	-0.0819116164425644	0.5965410337166835	0.004760637340615603	-0.025671914721508676	0.5837437702146606	-0.0022515909371954024	-0.03461946753999795	0.5665336871249297	-0.008181257549336407	-0.04508197741638126	0.534425751674066	-0.010213875670512573	-0.06138634479621674	0.4622830810018608	-0.023011742144276925	-0.051989820119430985
3	0.10000000000000014	0.4441844149824872	-0.0523731209670657	-0.1698571038081284	0.4563812656705374	-0.05064301906612978	-0.15046010453747352	0.4566296447302004	-0.03792681253759511	-0.12205136645627085	0.4669638727380234	-0.029805470269167023	-0.07942347029376515	0.5511075640881451	0.02953864477070056	-0.1848729016952041	0.5426640180882293	0.020584771963432558	-0.17158626582683728	0.5315967171913901	0.007776384073411413	-0.15299944567067336	0.5122434771376868	-0.008460182221890378	-0.11871443278804478	0.5814767766997206	0.06129913955530997	-0.13577902290306254	0.5714512764659712	0.04715568675283055	-0.13053954889443092	0.5538287731271027	0.02626803737967187	-0.12041220819039858	0.5235204571755995	8.589390242197403e-05	-0.10061197414833284	0.5971137138908181	0.04900630492633007	-0.08630827983452435	0.5849581369564073	0.03569368787117433	-0.08618109282890205	0.5672412631085376	0.01820744782221162	-0.08545737395479602	0.53443371502911	-0.005133441115444337	-0.08177111207912297	0.5965236683551107	0.00472741392517273	-0.025729548165541405	0.5837326455703312	-0.0024029042822429902	-0.03459229595503907	0.5664833858090186	-0.008302990965929347	-0.0450069027076605	0.5344795106675326	-0.0105924346615337	-0.06148093908290403	0.4622830810018609	-0.023011742144276925	-0.05198982011943096
4	0.13333333333333353	0.44413366391698994	-0.052598541092618634	-0.16975681729363615	0.4563133747372561	-0.050794637972431	-0.15035577150049217	0.45662660429698265	-0.03801811740721295	-0.12197474950533713	0.4670996203604174	-0.029836105381630285	-0.07939235157205654	0.5512651303408552	0.029283010018623767	-0.1848701576772662	0.5428003264346737	0.020300622130003387	-0.17161633548711067	0.5316308817692731	0.007525224082196136	-0.153067951633345	0.5122718392566777	-0.008559763375896812	-0.11871483320912452	0.5817947722280624	0.06098749834353345	-0.13573131403439173	0.5717012944878674	0.04688599087588452	-0.1305093226280383	0.5538900644789237	0.026174139667937912	-0.1203511311005869	0.5235727553629597	-3.841057408926485e-05	-0.10060496947924155	0.5974763396007866	0.04865926019503386	-0.08648051808958895	0.585321940389829	0.03534561629220878	-0.08634835966404775	0.5674457597529109	0.0180236067677354	-0.0855932895545014	0.5344344980898316	-0.004991406495516881	-0.08168348113156881	0.5965286306243274	0.004647041039552491	-0.025783383718075426	0.5837339513130894	-0.0025476076404191694	-0.034588678244345306	0.566452986517478	-0.008410897037237963	-0.044971457842410245	0.5345129785028341	-0.010841642013615704	-0.06154887675743734	0.462283081001861	-0.023011742144276925	-0.05198982011943096
5	0.1666666666666669	0.44408655789774987	-0.052765197097837446	-0.16967992208133081	0.4562615445751147	-0.05091772448887155	-0.15028001114429007	0.45661461778769097	-0.038084889335537886	-0.1219248761378415	0.46717529046703454	-0.029870161652132188	-0.07937043522214796	0.5513969224986404	0.02909380951525209	-0.18487236860022294	0.542909519328166	0.020101234843704185	-0.17163992407177472	0.5316650414613564	0.007358129030020422	-0.15311467630759928	0.5122694923944622	-0.008609206275431935	-0.11872728074415245	0.5820752356489235	0.060721237776494186	-0.1356948462633214	0.5719216386569851	0.04665830827359818	-0.13048538545418967	0.5539636824750455	0.026079543719526588	-0.12031504577472854	0.523590772743068	-0.0001008527272475801	-0.10061171820543516	0.5977695528534654	0.048353504365782674	-0.08662876963275717	0.5855943434949165	0.035059027251263974	-0.08648332092344835	0.567597331528157	0.017863976524756353	-0.08569733760228318	0.53442821262535	-0.00489741245061337	-0.08164153224164536	0.5965542735936792	0.004534846062607012	-0.025832767991314065	0.5837473762811608	-0.002680120149537446	-0.03460360853166275	0.5664411546041154	-0.008501682412240474	-0.04496778351505773	0.5345300310322141	-0.010979049410680064	-0.06159385629650227	0.4622830810018608	-0.023011742144276925	-0.051989820119430985
6	0.20000000000000023	0.44404667437196355	-0.052888561104774356	-0.16962331316963647	0.45622584664550236	-0.05102051052767809	-0.15022800059744845	0.45659673174285875	-0.03813464075989503	-0.12189715513579144	0.46720217347487025	-0.02990730676405029	-0.0793562855984897	0.5515084363865888	0.028959397052557345	-0.18487849503155274	0.5429969572553136	0.019971634648200842	-0.17165825108672708	0.5316995198672709	0.007260107857437692	-0.1531435318582059	0.5122422064244115	-0.008617562221409525	-0.11874951144108103	0.5823264080462719	0.0604900437408562	-0.13567157255437648	0.5721194547615199	0.04646282208060437	-0.13047011534153186	0.5540466820386772	0.025984029095448613	-0.1203013654685331	0.523580453244793	-0.0001117197611784082	-0.10062984504710787	0.5980067536478425	0.04808394778495839	-0.08676121894720093	0.5857930328031863	0.03482508205883572	-0.08659537930941916	0.5677067601340384	0.017725424227466036	-0.08577780852513775	0.5344161536353188	-0.004842527818741504	-0.08163729003254602	0.5965967423533028	0.0044041220661119596	-0.02587807246888915	0.5837707853519224	-0.0027963070764843723	-0.03463299377985407	0.5664448463881255	-0.008573471476147176	-0.04498906588862478	0.5345338967220548	-0.011022922127079116	-0.06161960809019318	0.4622830810018609	-0.023011742144276925	-0.05198982011943101
7	0.23333333333333361	0.4440176048372845	-0.05298419265834842	-0.16958311120474256	0.4562062519032274	-0.05111118790027991	-0.1501942294453905	0.45657602276502984	-0.03817480783321192	-0.12188639766211667	0.46719159233397145	-0.029947133596427755	-0.07934812008320752	0.551604946811347	0.0288676285113596	-0.18488724543367113	0.5430678280114145	0.01989653933544222	-0.17167220999695823	0.5317345395872167	0.007215930102535517	-0.15315820027522958	0.5121957531442651	-0.008594006802971288	-0.11877916868065677	0.5825536414943473	0.06028573758278477	-0.1356621194606497	0.5722988950129709	0.046291945783061506	-0.1304646233645762	0.5541353007900282	0.025888127327850174	-0.12030698646660318	0.5235476687728285	-8.142379185571702e-05	-0.10065686933663759	0.5981991908902796	0.04784597402510293	-0.08688458945859892	0.5859337304790384	0.03463531191809188	-0.08669252802400412	0.567783215781028	0.01760549349042273	-0.08584159940306715	0.5343995226757817	-0.004817334779981586	-0.08166228833415867	0.5966509515643162	0.0042669567240125605	-0.02592023412654898	0.5838010205298653	-0.0028929107089062933	-0.03467326621565281	0.5664600659024478	-0.008625278919179635	-0.04502909869361901	0.5345273840973936	-0.01099197301066801	-0.061629883097209154	0.4622830810018608	-0.023011742144276925	-0.051989820119430985
